<svg width="508" height="53" viewBox="0 0 508 53" fill="none" xmlns="http://www.w3.org/2000/svg">
<path d="M0.111523 13.4539C15.1519 11.6179 47.4337 10.4246 56.2379 20.3387C67.243 32.7315 83.7508 35.9445 99.158 13.4539C114.565 -9.03667 173.993 1.06111 183.348 25.3876C192.702 49.714 216.913 61.1888 237.273 43.2882C257.632 25.3876 262.585 54.7629 287.346 25.3876C312.108 -3.98777 353.377 2.43817 366.033 20.3387C378.689 38.2393 395.747 35.4854 405.102 33.6494C414.456 31.8134 421.609 51.55 443.07 51.55C464.53 51.55 461.778 20.3387 481.588 20.3387C497.435 20.3387 505.799 20.3387 508 20.3387" stroke="#986FFA" stroke-width="1.8375"/>
</svg>
