<svg width="38" height="43" viewBox="0 0 38 43" fill="none" xmlns="http://www.w3.org/2000/svg">
<path fill-rule="evenodd" clip-rule="evenodd" d="M27.5655 7.48324C30.011 8.86393 31.8849 11.0989 31.8849 14.211V24.6688L37.1162 30.5761C39.1096 32.8271 37.5115 36.3769 34.5048 36.3769H3.49501C0.488281 36.3769 -1.10977 32.8271 0.883593 30.5761L6.11494 24.6688V14.2108C6.11494 11.0988 7.98884 8.86388 10.4343 7.48322C12.8526 6.11787 15.9715 5.48146 18.9999 5.48146C22.0283 5.48146 25.1472 6.11788 27.5655 7.48324ZM11.9042 10.0868C10.0784 11.1176 9.10483 12.4999 9.10483 14.2108V24.8586C9.10483 25.4685 8.88116 26.0549 8.47856 26.5095L3.12195 32.5583C2.83718 32.8799 3.06548 33.387 3.49501 33.387H34.5048C34.9344 33.387 35.1627 32.8799 34.8779 32.5583L29.5213 26.5095C29.1187 26.0549 28.895 25.4685 28.895 24.8586V14.211C28.895 12.5 27.9214 11.1176 26.0956 10.0868C24.2426 9.04067 21.6665 8.47134 18.9999 8.47134C16.3333 8.47134 13.7572 9.04067 11.9042 10.0868Z" fill="#818181"/>
<path d="M22.9864 3.98651C22.9864 6.1882 21.2016 7.97302 18.9999 7.97302C16.7982 7.97302 15.0134 6.1882 15.0134 3.98651C15.0134 1.78482 16.7982 0 18.9999 0C21.2016 0 22.9864 1.78482 22.9864 3.98651Z" fill="#818181"/>
<path fill-rule="evenodd" clip-rule="evenodd" d="M10.5285 33.387H27.4703V34.882C27.4703 36.9453 26.5122 38.8677 24.9049 40.2454C23.3048 41.6169 21.1776 42.3567 18.999 42.3567C16.8305 42.3567 14.6508 41.623 13.0436 40.2454C11.4119 38.8468 10.5285 36.9148 10.5285 34.882L10.5285 33.387ZM13.8133 36.3769C14.0552 36.964 14.4465 37.51 14.9894 37.9753C15.9988 38.8405 17.467 39.3668 18.999 39.3668C20.5208 39.3668 21.9426 38.8466 22.9591 37.9753C23.5093 37.5037 23.9116 36.9566 24.1639 36.3769H13.8133Z" fill="#818181"/>
</svg>
